<?xml version="1.0" encoding="UTF-8"?>
<svg version="1.1" xmlns="http://www.w3.org/2000/svg" width="1024" height="1024">
<path d="M0 0 C4.09324755 1.32100743 7.64406475 2.77390393 11.359375 4.94921875 C12.37902344 5.5421875 13.39867187 6.13515625 14.44921875 6.74609375 C16.08310547 7.70708984 16.08310547 7.70708984 17.75 8.6875 C18.90720972 9.36256639 20.06476857 10.03703462 21.22265625 10.7109375 C23.62570582 12.11015805 26.0272392 13.51192935 28.42773438 14.91552734 C33.93786812 18.13449365 39.47007617 21.31519845 45 24.5 C47.16676979 25.74982124 49.33343615 26.9998218 51.5 28.25 C53.10875 29.178125 53.10875 29.178125 54.75 30.125 C98.625 55.4375 98.625 55.4375 142.5 80.75 C143.57266113 81.36883057 144.64532227 81.98766113 145.75048828 82.62524414 C147.91557071 83.87435518 150.08060982 85.12354129 152.24560547 86.37280273 C157.68615706 89.51202309 163.12747216 92.64990563 168.5703125 95.78515625 C179.02206199 101.80747329 189.46299548 107.84669337 199.875 113.9375 C208.55262241 119.01275123 217.26605568 124.02258767 226 129 C235.72115617 134.5400173 245.40894658 140.13374809 255.06689453 145.78344727 C265.59084625 151.93766742 276.15380137 158.02369996 286.71777344 164.10888672 C292.14659942 167.23680148 297.57319281 170.36858448 303 173.5 C305.16665583 174.75001879 307.3333225 176.00001878 309.5 177.25 C348.5 199.75 387.5 222.25 426.5 244.75 C427.57314453 245.36907227 428.64628906 245.98814453 429.75195312 246.62597656 C431.91228293 247.87242061 434.07244003 249.11916402 436.23242188 250.36621094 C441.74464393 253.54813031 447.26003792 256.72432714 452.78125 259.890625 C458.21894362 263.01067756 463.6475022 266.14598074 469.06738281 269.296875 C470.93947769 270.38409893 472.81362681 271.4677985 474.69042969 272.546875 C484.92414648 278.44682486 493.72308794 284.51903464 502 293 C502.72316406 293.70253906 503.44632813 294.40507812 504.19140625 295.12890625 C519.42973789 310.84436764 526.3077967 333.09097548 526.29052734 354.52368164 C526.30060318 356.34296677 526.30060318 356.34296677 526.31088257 358.19900513 C526.32653266 361.49907566 526.3332323 364.79899442 526.33451414 368.09909749 C526.3359448 370.17071983 526.34023164 372.24231651 526.34550858 374.31393242 C526.36396824 381.56957524 526.37218486 388.82514502 526.37060547 396.08081055 C526.3694072 402.79728801 526.39045794 409.51344253 526.4220928 416.22983843 C526.44843313 422.0332452 526.45896531 427.83654771 526.45769465 433.64001364 C526.45718992 437.08957815 526.46259594 440.53885559 526.48405075 443.98835945 C526.57514392 461.72500828 526.46097411 478.68467011 518.25 494.875 C517.90783447 495.57423584 517.56566895 496.27347168 517.21313477 496.99389648 C514.10727823 503.1538098 510.36296403 508.65559212 506 514 C505.48308594 514.67933594 504.96617187 515.35867188 504.43359375 516.05859375 C495.7531386 526.87109051 482.88121446 534.60819474 471.70703125 542.61328125 C466.93953215 546.03281787 462.21694886 549.51120683 457.5 553 C450.62319912 558.08236483 443.70966508 563.11003092 436.76953125 568.10546875 C431.31916162 572.03392016 425.90325984 576.00705268 420.5 580 C413.6229644 585.08205078 406.70966917 590.11002797 399.76953125 595.10546875 C394.31916162 599.03392016 388.90325984 603.00705268 383.5 607 C376.6229644 612.08205078 369.70966917 617.11002797 362.76953125 622.10546875 C357.31916162 626.03392016 351.90325984 630.00705268 346.5 634 C339.6229644 639.08205078 332.70966917 644.11002797 325.76953125 649.10546875 C320.31916162 653.03392016 314.90325984 657.00705268 309.5 661 C302.6229644 666.08205078 295.70966917 671.11002797 288.76953125 676.10546875 C282.52207401 680.60843531 276.3227129 685.17460214 270.12963867 689.75195312 C263.83149416 694.40137211 257.49533348 698.99616986 251.13671875 703.5625 C250.44835937 704.0575 249.76 704.5525 249.05078125 705.0625 C248.37998535 705.53816406 247.70918945 706.01382813 247.01806641 706.50390625 C245.61266641 707.54579969 244.24677913 708.64224033 242.91552734 709.77734375 C237.78656334 714.06627122 237.78656334 714.06627122 234.171875 713.76171875 C233.12515625 713.18035156 232.0784375 712.59898437 231 712 C230.24267578 711.58443848 229.48535156 711.16887695 228.70507812 710.74072266 C225.8566704 709.14550844 223.05360223 707.48516299 220.25 705.8125 C218.08632451 704.53580222 215.92224834 703.25978329 213.7578125 701.984375 C212.64180664 701.32501953 211.52580078 700.66566406 210.37597656 699.98632812 C204.9787367 696.81074644 199.55236 693.6862344 194.125 690.5625 C191.94008624 689.30341652 189.75519051 688.04430177 187.5703125 686.78515625 C186.48524414 686.16012207 185.40017578 685.53508789 184.28222656 684.89111328 C178.85340058 681.76319852 173.42680719 678.63141552 168 675.5 C165.83334417 674.24998121 163.6666775 672.99998122 161.5 671.75 C139.83333333 659.25 118.16666667 646.75 96.5 634.25 C95.4262915 633.63060547 94.35258301 633.01121094 93.24633789 632.37304688 C91.09169376 631.129877 88.93723243 629.88639025 86.78295898 628.64257812 C81.77245879 625.75016853 76.76037365 622.86064773 71.74136353 619.98303223 C69.98271251 618.97451686 68.22466791 617.9649523 66.46679688 616.95507812 C64.27527769 615.69649482 62.08265496 614.43983013 59.88867188 613.18554688 C53.13727598 609.30468668 46.53408865 605.23641368 40 601 C41.30165879 597.09502363 43.67625945 595.84576012 46.9375 593.625 C48.22444677 592.72726229 49.51088065 591.82878901 50.796875 590.9296875 C51.48201172 590.45370117 52.16714844 589.97771484 52.87304688 589.48730469 C56.50582834 586.94702637 60.09595691 584.34810412 63.6875 581.75 C64.441521 581.20553223 65.19554199 580.66106445 65.97241211 580.10009766 C72.30916567 575.51736815 78.60400625 570.87897365 84.89331055 566.23144531 C90.97478595 561.74230797 97.09562476 557.31032964 103.23046875 552.89453125 C108.68083838 548.96607984 114.09674016 544.99294732 119.5 541 C125.64016269 536.46248989 131.80354661 531.96033424 138 527.5 C147.38780773 520.74016251 156.69696495 513.87582656 166 507 C176.0401124 499.57940327 186.09797508 492.18803961 196.23071289 484.89428711 C201.68106937 480.9660112 207.09683174 476.99287964 212.5 473 C219.3770356 467.91794922 226.29033083 462.88997203 233.23046875 457.89453125 C238.68083905 453.96607936 244.09670489 449.9929005 249.5 446 C260.92306582 437.55988528 272.43761894 429.24803361 284 421 C280.59166354 418.1544796 277.16533016 415.81788398 273.30078125 413.63671875 C271.63088135 412.68913696 271.63088135 412.68913696 269.92724609 411.72241211 C269.04489288 411.22570511 269.04489288 411.22570511 268.14471436 410.71896362 C265.63313685 409.30504564 263.12707484 407.8814735 260.62054443 406.45863342 C259.32383464 405.72272457 258.02683499 404.98732624 256.72955322 404.25242615 C250.42563732 400.68042145 244.14790189 397.06366865 237.875 393.4375 C236.81192627 392.82350342 235.74885254 392.20950684 234.65356445 391.5769043 C232.5081844 390.33776657 230.36292029 389.0984281 228.21777344 387.85888672 C222.81329355 384.73675395 217.40652588 381.61858796 212 378.5 C209.8333225 377.25001878 207.66665583 376.00001879 205.5 374.75 C204.4275 374.13125 203.355 373.5125 202.25 372.875 C181.66666667 361 161.08333333 349.125 140.5 337.25 C139.42733887 336.63116943 138.35467773 336.01233887 137.24951172 335.37475586 C135.08442929 334.12564482 132.91939018 332.87645871 130.75439453 331.62719727 C125.31384294 328.48797691 119.87252784 325.35009437 114.4296875 322.21484375 C103.97793801 316.19252671 93.53700452 310.15330663 83.125 304.0625 C73.85733917 298.64215502 64.54640471 293.30059615 55.21859741 287.98480225 C30.18530391 273.71508098 30.18530391 273.71508098 22.50364399 268.95085621 C19.8596406 267.38848892 17.17593938 266.24367107 14.32181835 265.11477947 C1.66112007 259.67939295 1.66112007 259.67939295 -1.08955741 253.58662248 C-2.83973363 246.25540959 -2.37933957 238.72911246 -2.15698242 231.2512207 C-2.15161853 228.72746691 -2.15464019 226.2036835 -2.16539001 223.6799469 C-2.16970627 218.25999225 -2.11613949 212.8456187 -2.00887108 207.42681313 C-1.85391046 199.59363878 -1.80492301 191.76256079 -1.78109924 183.92802002 C-1.73959625 171.21587224 -1.61338582 158.50605144 -1.43334961 145.79516602 C-1.25873008 133.45381247 -1.1243515 121.11309275 -1.04370117 108.77075195 C-1.03870943 108.00897104 -1.03371768 107.24719013 -1.02857467 106.46232495 C-1.0037775 102.64038366 -0.9797674 98.81843791 -0.95614851 94.99648917 C-0.75943451 63.32928635 -0.42359942 31.66500597 0 0 Z M61 105 C60.78960888 119.89016193 60.63097892 134.78020857 60.53369045 149.67154121 C60.48731297 156.58622087 60.424107 163.49997622 60.32104492 170.4140625 C60.2216383 177.08610617 60.1694494 183.75699125 60.14610481 190.42980576 C60.12946838 192.97605383 60.09698018 195.52224901 60.04842949 198.06808853 C59.98312782 201.63395152 59.97409607 205.19584281 59.97827148 208.76220703 C59.92973526 210.34285194 59.92973526 210.34285194 59.88021851 211.95542908 C59.91135558 217.53686606 59.91135558 217.53686606 62.97555637 221.96744919 C65.25929085 223.50958061 67.52779632 224.7886208 70 226 C70.9082251 226.54527344 71.8164502 227.09054688 72.75219727 227.65234375 C73.51588623 228.07644531 74.2795752 228.50054687 75.06640625 228.9375 C75.95094482 229.4322583 76.8354834 229.9270166 77.74682617 230.43676758 C78.67599854 230.95263428 79.6051709 231.46850098 80.5625 232 C88.64938247 236.52941137 96.69167486 241.12421163 104.6875 245.8125 C113.42603127 250.93249241 122.20006652 255.9866107 131 261 C140.67490784 266.51246859 150.31282363 272.08424699 159.921875 277.7109375 C167.58573974 282.19166265 175.28685835 286.60494224 183 291 C192.72124506 296.53985933 202.40894868 302.13374932 212.06689453 307.78344727 C222.59084625 313.93766742 233.15380137 320.02369996 243.71777344 326.10888672 C249.14659942 329.23680148 254.57319281 332.36858448 260 335.5 C262.16665583 336.75001879 264.3333225 338.00001878 266.5 339.25 C270.83333333 341.75 275.16666667 344.25 279.5 346.75 C280.57282227 347.36891113 281.64564453 347.98782227 282.75097656 348.62548828 C284.91447476 349.87371034 287.07788643 351.12208239 289.24121094 352.37060547 C294.70565017 355.52405256 300.17163645 358.67476096 305.640625 361.8203125 C312.09970808 365.5366145 318.55221856 369.26412663 325 373 C326.04929687 373.60714844 327.09859375 374.21429688 328.1796875 374.83984375 C331.20696832 376.59506268 334.22924682 378.35857571 337.25 380.125 C338.14879883 380.64529785 339.04759766 381.1655957 339.97363281 381.70166016 C350.31980046 387.78097764 358.00362012 394.74455469 361.46875 406.625 C364.21790405 418.91533574 362.4285362 428.85560504 356.92578125 440.078125 C352.47440693 446.83193431 346.31066939 451.48109201 339.75 456.0625 C338.15037174 457.19827582 336.55143594 458.3350274 334.953125 459.47265625 C334.13521484 460.05289551 333.31730469 460.63313477 332.47460938 461.23095703 C328.4494342 464.10846486 324.47589249 467.05497035 320.5 470 C313.62359587 475.0828953 306.70965806 480.11003597 299.76953125 485.10546875 C294.31916162 489.03392016 288.90325984 493.00705268 283.5 497 C276.6229644 502.08205078 269.70966917 507.11002797 262.76953125 512.10546875 C257.31916162 516.03392016 251.90325984 520.00705268 246.5 524 C239.6229644 529.08205078 232.70966917 534.11002797 225.76953125 539.10546875 C220.31916162 543.03392016 214.90325984 547.00705268 209.5 551 C203.35983702 555.53751033 197.19644112 560.0396483 191 564.5 C177.55524256 574.18164652 164.22575564 584.02128617 151 594 C154.40833646 596.8455204 157.83466984 599.18211602 161.69921875 601.36328125 C163.3697229 602.31122559 163.3697229 602.31122559 165.07397461 603.27832031 C166.2784817 603.95638265 167.4829902 604.63444248 168.6875 605.3125 C170.58017286 606.38454291 172.47192736 607.45819468 174.36366272 608.53189087 C175.6580867 609.26642118 176.9527976 610.00044609 178.24778748 610.73397827 C183.5791722 613.75497781 188.89094594 616.80858081 194.19580078 619.87597656 C196.34615473 621.11909427 198.49816012 622.35935996 200.65185547 623.59667969 C205.83622091 626.57675105 210.995939 629.58833395 216.1171875 632.67578125 C217.56073608 633.53381348 217.56073608 633.53381348 219.03344727 634.40917969 C220.83712108 635.48222538 222.63251028 636.56936794 224.41772461 637.67285156 C228.69600493 640.34691263 228.69600493 640.34691263 233.53125 640.703125 C234.3459375 640.14109375 235.160625 639.5790625 236 639 C236.61641357 638.57517334 237.23282715 638.15034668 237.86791992 637.71264648 C240.17722466 636.08237885 242.43248646 634.39201956 244.6875 632.6875 C246.39914821 631.40936392 248.11140197 630.13203843 249.82421875 628.85546875 C250.68966309 628.20884277 251.55510742 627.5622168 252.44677734 626.89599609 C256.26930346 624.0574287 260.13285949 621.27731 264 618.5 C273.38859663 611.74127965 282.69698272 604.87581342 292 598 C302.0401124 590.57940327 312.09797508 583.18803961 322.23071289 575.89428711 C327.68106937 571.9660112 333.09683174 567.99287964 338.5 564 C345.3770356 558.91794922 352.29033083 553.88997203 359.23046875 548.89453125 C364.68083838 544.96607984 370.09674016 540.99294732 375.5 537 C382.3770356 531.91794922 389.29033083 526.88997203 396.23046875 521.89453125 C402.48386662 517.38728287 408.68921279 512.81688902 414.88793945 508.23486328 C420.2942006 504.24348524 425.73206688 500.29881497 431.1875 496.375 C434.1271994 494.25302935 437.06393516 492.12699551 440 490 C440.74008301 489.46568359 441.48016602 488.93136719 442.24267578 488.38085938 C444.4186538 486.80474042 446.58536586 485.21665017 448.75 483.625 C449.39348389 483.1614209 450.03696777 482.6978418 450.69995117 482.22021484 C458.06908515 476.75936024 463.55201551 470.62143896 465.56414795 461.42022705 C466.14262685 456.88077568 466.15572212 452.41068061 466.16113281 447.83886719 C466.16609772 446.82992905 466.17106262 445.82099091 466.17617798 444.78147888 C466.19074801 441.45327057 466.19759304 438.12510993 466.203125 434.796875 C466.20888072 432.47528076 466.2146384 430.15368652 466.22039795 427.83209229 C466.23089328 422.96667256 466.23674555 418.10126929 466.24023438 413.23583984 C466.24571579 407.01757748 466.26974275 400.79953444 466.29820633 394.58134079 C466.31687828 389.78563817 466.32204074 384.98998791 466.32357025 380.19425201 C466.32658703 377.90264945 466.33458242 375.61104759 466.34775543 373.3194809 C466.364911 370.10572361 466.36291235 366.8924961 466.35644531 363.67871094 C466.3656601 362.74226242 466.37487488 361.8058139 466.3843689 360.84098816 C466.32122157 350.76579297 463.72557243 341.66167994 457 334 C450.98797477 328.64016685 443.58862104 325.01592922 436.55908203 321.1706543 C430.18145888 317.68182532 423.89452764 314.05413327 417.625 310.375 C408.78277385 305.19155248 399.90578079 300.07311987 391 295 C381.27856294 289.46048161 371.59104683 283.86624806 361.93310547 278.21655273 C351.40915375 272.06233258 340.84619863 265.97630004 330.28222656 259.89111328 C324.85340058 256.76319852 319.42680719 253.63141552 314 250.5 C311.83334417 249.24998121 309.6666775 247.99998122 307.5 246.75 C251.16666667 214.25 194.83333333 181.75 138.5 149.25 C137.42733887 148.63116943 136.35467773 148.01233887 135.24951172 147.37475586 C133.08442929 146.12564482 130.91939018 144.87645871 128.75439453 143.62719727 C123.31384294 140.48797691 117.87252784 137.35009437 112.4296875 134.21484375 C110.24474998 132.95580151 108.05985393 131.69668729 105.875 130.4375 C104.81039551 129.82414795 103.74579102 129.2107959 102.64892578 128.57885742 C97.19308871 125.43202484 91.74616721 122.27091708 86.3125 119.0859375 C85.2311377 118.45244385 84.14977539 117.8189502 83.03564453 117.16625977 C80.99358244 115.96856338 78.95279913 114.76868279 76.91357422 113.56616211 C75.9907666 113.02483643 75.06795898 112.48351074 74.1171875 111.92578125 C73.31909668 111.45567627 72.52100586 110.98557129 71.69873047 110.5012207 C69.43164634 109.24011157 67.15304451 108.06127994 64.83132935 106.90617371 C64.11318117 106.54846988 63.395033 106.19076605 62.65512276 105.82222271 C62.10893225 105.55088922 61.56274174 105.27955572 61 105 Z " fill="#E42527" transform="translate(416,0)"/>
<path d="M0 0 C2.47167969 1.16064453 2.47167969 1.16064453 4.921875 2.6328125 C6.31575439 3.45930298 6.31575439 3.45930298 7.73779297 4.30249023 C8.73182129 4.90391846 9.72584961 5.50534668 10.75 6.125 C12.91360121 7.41093269 15.07768002 8.6960621 17.2421875 9.98046875 C18.35819336 10.6461084 19.47419922 11.31174805 20.62402344 11.99755859 C26.01253101 15.19372139 31.44352595 18.31510214 36.875 21.4375 C39.05998436 22.69646096 41.24487972 23.95557638 43.4296875 25.21484375 C45.05729004 26.15239502 45.05729004 26.15239502 46.71777344 27.10888672 C52.14659942 30.23680148 57.57319281 33.36858448 63 36.5 C65.16665583 37.75001879 67.3333225 39.00001878 69.5 40.25 C73.83333333 42.75 78.16666667 45.25 82.5 47.75 C83.57266113 48.36883057 84.64532227 48.98766113 85.75048828 49.62524414 C87.91557071 50.87435518 90.08060982 52.12354129 92.24560547 53.37280273 C97.68615706 56.51202309 103.12747216 59.64990563 108.5703125 62.78515625 C119.02206192 68.80747325 129.46300293 74.84668065 139.875 80.9375 C149.94828653 86.829168 160.06965614 92.63355931 170.21044922 98.40795898 C177.50037044 102.56074961 184.76164712 106.75798474 192 111 C190.65008634 114.15078009 189.33725021 115.78663118 186.53515625 117.7421875 C185.47361328 118.49435547 185.47361328 118.49435547 184.390625 119.26171875 C183.62234375 119.79410156 182.8540625 120.32648438 182.0625 120.875 C180.41725981 122.0380603 178.77275175 123.20215681 177.12890625 124.3671875 C176.2795752 124.9662793 175.43024414 125.56537109 174.55517578 126.18261719 C170.49746772 129.06868434 166.49987978 132.03457903 162.5 135 C156.36061225 139.53854443 150.1964392 144.03967597 144 148.5 C134.61219227 155.25983749 125.30303505 162.12417344 116 169 C105.9598876 176.42059673 95.90202492 183.81196039 85.76928711 191.10571289 C80.31893063 195.0339888 74.90316826 199.00712036 69.5 203 C62.6229644 208.08205078 55.70966917 213.11002797 48.76953125 218.10546875 C43.31916162 222.03392016 37.90325984 226.00705268 32.5 230 C25.6229644 235.08205078 18.70966917 240.11002797 11.76953125 245.10546875 C6.31916162 249.03392016 0.90325984 253.00705268 -4.5 257 C-11.36487763 262.07306617 -18.26253002 267.09705087 -25.1953125 272.0769043 C-29.24888085 274.99398744 -33.27720703 277.94098901 -37.28125 280.92578125 C-38.15265625 281.57417969 -39.0240625 282.22257812 -39.921875 282.890625 C-41.61243152 284.15085804 -43.30004558 285.41505005 -44.984375 286.68359375 C-45.74234375 287.24820312 -46.5003125 287.8128125 -47.28125 288.39453125 C-48.28768555 289.15020386 -48.28768555 289.15020386 -49.31445312 289.92114258 C-51 291 -51 291 -53 291 C-50.4916488 293.81784037 -47.70077062 295.45723723 -44.42578125 297.30078125 C-43.29575684 297.94088135 -42.16573242 298.58098145 -41.00146484 299.24047852 C-40.40082214 299.57782013 -39.80017944 299.91516174 -39.18133545 300.26272583 C-35.98901802 302.05593474 -32.80583354 303.86525434 -29.62109375 305.671875 C-28.97456848 306.03801407 -28.32804321 306.40415314 -27.66192627 306.78138733 C-21.70368197 310.15857254 -15.7843799 313.60055967 -9.875 317.0625 C1.6282502 323.79289113 13.16924004 330.45656105 24.71777344 337.10888672 C30.14659942 340.23680148 35.57319281 343.36858448 41 346.5 C43.16665583 347.75001879 45.3333225 349.00001878 47.5 350.25 C86.5 372.75 125.5 395.25 164.5 417.75 C165.57338623 418.3692334 166.64677246 418.9884668 167.75268555 419.62646484 C169.91049803 420.87141282 172.06821353 422.1165289 174.22583008 423.36181641 C179.77716592 426.56552651 185.33036541 429.7659363 190.88671875 432.9609375 C192.02560547 433.61642578 193.16449219 434.27191406 194.33789062 434.94726562 C196.47787488 436.1788484 198.61844226 437.40941886 200.75976562 438.63867188 C202.71521782 439.7646154 204.6570181 440.91471849 206.58201504 442.0919733 C209.07942864 443.48610811 211.19484126 444.48789393 213.83059025 445.46142483 C218.20865472 447.25571587 222.02642024 449.22714226 225 453 C227.85245847 460.66757278 226.8908386 469.49002129 226.70288086 477.52172852 C226.69864765 480.04518887 226.70102889 482.56866769 226.70951843 485.09211731 C226.71292921 490.51671457 226.67053953 495.93784324 226.58595085 501.36172676 C226.4637446 509.20280228 226.42495092 517.0425713 226.40613098 524.88449585 C226.37334645 537.608393 226.27365057 550.33084312 226.1315918 563.05395508 C225.9937863 575.40902493 225.88767094 587.76370097 225.82397461 600.11938477 C225.82003376 600.88169112 225.8160929 601.64399748 225.81203263 602.42940403 C225.79245627 606.25388809 225.77350084 610.07837493 225.75485408 613.90286362 C225.59949378 645.60297027 225.33430611 677.30125975 225 709 C220.17008895 707.46855447 216.06203586 705.43989217 211.75 702.8125 C210.23381085 701.90501595 208.71683112 700.99885194 207.19921875 700.09375 C206.37083496 699.59875 205.54245117 699.10375 204.68896484 698.59375 C199.67332135 695.6209771 194.61581773 692.72060528 189.5625 689.8125 C188.45680664 689.17546143 187.35111328 688.53842285 186.21191406 687.88208008 C183.93975918 686.57299343 181.66745991 685.26415738 179.39501953 683.95556641 C173.9283002 680.80667946 168.46425113 677.65316736 163 674.5 C160.83334689 673.2499765 158.66668021 671.99997653 156.5 670.75 C134.83333333 658.25 113.16666667 645.75 91.5 633.25 C90.42733887 632.63116943 89.35467773 632.01233887 88.24951172 631.37475586 C86.08442929 630.12564482 83.91939018 628.87645871 81.75439453 627.62719727 C76.31384294 624.48797691 70.87252784 621.35009437 65.4296875 618.21484375 C54.97793801 612.19252671 44.53700452 606.15330663 34.125 600.0625 C25.44737759 594.98724877 16.73394432 589.97741233 8 585 C-1.72115617 579.4599827 -11.40894658 573.86625191 -21.06689453 568.21655273 C-31.59084625 562.06233258 -42.15380137 555.97630004 -52.71777344 549.89111328 C-58.14659942 546.76319852 -63.57319281 543.63141552 -69 540.5 C-71.16665583 539.24998121 -73.3333225 537.99998122 -75.5 536.75 C-114.5 514.25 -153.5 491.75 -192.5 469.25 C-193.57258057 468.63125 -194.64516113 468.0125 -195.75024414 467.375 C-197.91625962 466.1252818 -200.0821126 464.87528191 -202.24780273 463.625 C-207.67313309 460.49335497 -213.10122418 457.3666989 -218.53515625 454.25 C-223.94519594 451.14515684 -229.34646616 448.02560279 -234.74023438 444.89257812 C-236.94551765 443.61221893 -239.15260302 442.33495944 -241.36132812 441.06054688 C-268.09151584 425.59820899 -289.82827108 408.48864542 -298.18634033 377.42175293 C-301.47659468 363.58496354 -301.29577516 349.66827344 -301.265625 335.53125 C-301.2669758 333.27933714 -301.26891977 331.02742457 -301.27142334 328.7755127 C-301.27435508 324.07899166 -301.27014017 319.38254722 -301.26074219 314.68603516 C-301.24934894 308.70508982 -301.25591892 302.72432408 -301.26788712 296.74338531 C-301.27515865 292.10018594 -301.27279362 287.45702823 -301.26763153 282.81382751 C-301.26630964 280.61010211 -301.26789074 278.40637276 -301.27259064 276.20265198 C-301.32296634 245.95331008 -301.32296634 245.95331008 -296.25 231.75 C-295.85639282 230.61606812 -295.85639282 230.61606812 -295.45483398 229.45922852 C-291.87527198 219.46828747 -286.82640115 211.10104037 -280 203 C-279.37867188 202.22140625 -278.75734375 201.4428125 -278.1171875 200.640625 C-271.46106494 192.69377145 -263.36801007 186.99018433 -255 181 C-253.54368763 179.94742102 -252.08796108 178.89403104 -250.6328125 177.83984375 C-247.63766688 175.67210835 -244.63821198 173.51049759 -241.63671875 171.3515625 C-236.89849265 167.93602851 -232.1969747 164.47194838 -227.5 161 C-220.62303764 155.91785117 -213.70966791 150.88997112 -206.76953125 145.89453125 C-201.31916162 141.96607984 -195.90325984 137.99294732 -190.5 134 C-183.6229644 128.91794922 -176.70966917 123.88997203 -169.76953125 118.89453125 C-164.31916162 114.96607984 -158.90325984 110.99294732 -153.5 107 C-146.6229644 101.91794922 -139.70966917 96.88997203 -132.76953125 91.89453125 C-127.31916162 87.96607984 -121.90325984 83.99294732 -116.5 80 C-109.6229644 74.91794922 -102.70966917 69.88997203 -95.76953125 64.89453125 C-90.31916162 60.96607984 -84.90325984 56.99294732 -79.5 53 C-73.35983731 48.46248989 -67.19645339 43.96033424 -61 39.5 C-52.43244601 33.33079901 -43.93019948 27.07560479 -35.43945312 20.80126953 C-32.91444686 18.93682835 -30.38724594 17.0753988 -27.859375 15.21484375 C-27.01431396 14.59279053 -26.16925293 13.9707373 -25.29858398 13.32983398 C-23.69666914 12.15077558 -22.09462809 10.97188861 -20.49243164 9.79321289 C-19.75887451 9.25301514 -19.02531738 8.71281738 -18.26953125 8.15625 C-17.55748535 7.63804687 -16.84543945 7.11984375 -16.11181641 6.5859375 C-14.67255761 5.5050791 -13.26369635 4.38281679 -11.88427734 3.2265625 C-10.86454834 2.38738281 -10.86454834 2.38738281 -9.82421875 1.53125 C-9.23084717 1.02142578 -8.63747559 0.51160156 -8.02612305 -0.01367188 C-5.03604699 -1.46925776 -3.16133907 -0.84761816 0 0 Z M-5.87890625 74.5703125 C-6.625354 75.12984619 -7.37180176 75.68937988 -8.14086914 76.26586914 C-9.33957642 77.18613892 -9.33957642 77.18613892 -10.5625 78.125 C-12.28108357 79.41818996 -13.99983832 80.71115245 -15.71875 82.00390625 C-16.59660156 82.66922363 -17.47445312 83.33454102 -18.37890625 84.02001953 C-22.41474238 87.06869977 -26.48785456 90.06600211 -30.5625 93.0625 C-31.34761963 93.6414502 -32.13273926 94.22040039 -32.94165039 94.81689453 C-39.00914931 99.28689528 -45.11429864 103.70299247 -51.23071289 108.10571289 C-56.68106937 112.0339888 -62.09683174 116.00712036 -67.5 120 C-74.3770356 125.08205078 -81.29033083 130.11002797 -88.23046875 135.10546875 C-93.68083838 139.03392016 -99.09674016 143.00705268 -104.5 147 C-111.3770356 152.08205078 -118.29033083 157.11002797 -125.23046875 162.10546875 C-130.68083838 166.03392016 -136.09674016 170.00705268 -141.5 174 C-148.3770356 179.08205078 -155.29033083 184.11002797 -162.23046875 189.10546875 C-167.68083838 193.03392016 -173.09674016 197.00705268 -178.5 201 C-184.64017175 205.53751681 -190.8040183 210.03900178 -197 214.5 C-199.22845431 216.10790944 -201.45627396 217.71669123 -203.68359375 219.32617188 C-205.27938939 220.47928896 -206.87577884 221.63158458 -208.47265625 222.78320312 C-228.93462446 236.23135051 -228.93462446 236.23135051 -240 257 C-240.09292806 258.41157807 -240.13885371 259.8267391 -240.14717102 261.24134827 C-240.15432632 262.08077972 -240.16148163 262.92021118 -240.16885376 263.78507996 C-240.17154266 264.69784195 -240.17423157 265.61060394 -240.17700195 266.55102539 C-240.18357315 267.5190509 -240.19014435 268.48707642 -240.19691467 269.48443604 C-240.21662718 272.6888436 -240.22830768 275.89320427 -240.23828125 279.09765625 C-240.24235678 280.1945471 -240.2464323 281.29143795 -240.25063133 282.42156792 C-240.27148643 288.23083177 -240.28578886 294.04007206 -240.29516602 299.84936523 C-240.30621053 305.83224849 -240.34058978 311.81475779 -240.38033772 317.79750919 C-240.40656268 322.41225344 -240.41486324 327.02690952 -240.41844749 331.64172173 C-240.42330065 333.84598749 -240.4348781 336.05024965 -240.45348549 338.25444221 C-240.89111831 358.25664135 -240.89111831 358.25664135 -231.1796875 375.1328125 C-227.20621624 378.53661046 -222.81585134 381.11253934 -218.28027344 383.69921875 C-215.60851318 385.22332353 -212.94895002 386.76776924 -210.2890625 388.3125 C-205.26881201 391.22262747 -200.24057879 394.11857618 -195.20835876 397.00794983 C-189.13365341 400.4962082 -183.06672925 403.9978949 -177 407.5 C-174.83336859 408.75006112 -172.66670186 410.000061 -170.5 411.25 C-105.5 448.75 -40.5 486.25 24.5 523.75 C25.57266113 524.36883057 26.64532227 524.98766113 27.75048828 525.62524414 C29.91557071 526.87435518 32.08060982 528.12354129 34.24560547 529.37280273 C39.68615706 532.51202309 45.12747216 535.64990563 50.5703125 538.78515625 C61.02206199 544.80747329 71.46299548 550.84669337 81.875 556.9375 C90.55262439 562.01275239 99.26612926 567.02245629 108 572 C122.47735287 580.25159703 136.89248819 588.60858807 151.234375 597.09375 C152.03399658 597.56635254 152.83361816 598.03895508 153.6574707 598.52587891 C155.13644703 599.4010072 156.614225 600.27816512 158.09057617 601.15771484 C160.87083671 603.12504487 160.87083671 603.12504487 164 604 C164 565.72 164 527.44 164 488 C156.41 483.71 148.82 479.42 141 475 C137.05476393 472.71948966 133.11502296 470.43506719 129.1875 468.125 C117.58184858 461.32899282 105.93605309 454.60409117 94.28222656 447.89111328 C88.85340058 444.76319852 83.42680719 441.63141552 78 438.5 C75.83334417 437.24998121 73.6666775 435.99998122 71.5 434.75 C32.5 412.25 -6.5 389.75 -45.5 367.25 C-46.57266113 366.63116943 -47.64532227 366.01233887 -48.75048828 365.37475586 C-50.91557071 364.12564482 -53.08060982 362.87645871 -55.24560547 361.62719727 C-60.68615706 358.48797691 -66.12747216 355.35009437 -71.5703125 352.21484375 C-76.96850929 349.1050653 -82.36330062 345.98943692 -87.75683594 342.87158203 C-91.08750073 340.94950462 -94.42259417 339.03525674 -97.7578125 337.12109375 C-99.92203625 335.87267533 -102.08610464 334.62398754 -104.25 333.375 C-105.24402832 332.8070874 -106.23805664 332.2391748 -107.26220703 331.65405273 C-118.48170775 325.15717001 -126.39331194 317.91056574 -129.9375 304.9375 C-132.40212526 292.95325966 -130.84411413 281.89055043 -124.4375 271.25 C-118.14669246 262.63739815 -108.53884302 256.86335644 -99.921875 250.7890625 C-95.48483145 247.65127632 -91.11834314 244.41991449 -86.75 241.1875 C-80.52694006 236.5868451 -74.28146794 232.0205861 -68 227.5 C-61.80341871 223.03984573 -55.64016025 218.53750831 -49.5 214 C-42.6229644 208.91794922 -35.70966917 203.88997203 -28.76953125 198.89453125 C-23.31916162 194.96607984 -17.90325984 190.99294732 -12.5 187 C-5.6229644 181.91794922 1.29033083 176.88997203 8.23046875 171.89453125 C13.68083838 167.96607984 19.09674016 163.99294732 24.5 160 C31.37114062 154.92230555 38.27790666 149.89778164 45.21289062 144.90771484 C50.83871337 140.85381316 56.42440525 136.74764069 62 132.625 C68.27066108 127.98903365 74.56204455 123.40230372 81 119 C78.22262654 116.01114732 75.56071009 113.98949092 71.984375 112.0390625 C70.9931665 111.49258057 70.00195801 110.94609863 68.98071289 110.38305664 C67.91457764 109.80289795 66.84844238 109.22273926 65.75 108.625 C63.47166234 107.36768476 61.19434262 106.10852346 58.91796875 104.84765625 C58.33844955 104.52721848 57.75893036 104.2067807 57.16184998 103.87663269 C51.41183594 100.69024574 45.73245742 97.38862218 40.0625 94.0625 C39.09763672 93.49853516 38.13277344 92.93457031 37.13867188 92.35351562 C32.91680426 89.88496152 28.69721547 87.41268366 24.48583984 84.92626953 C21.49249915 83.15921933 18.49430871 81.40064992 15.49313354 79.64694214 C13.78350086 78.64464046 12.07930919 77.63307643 10.37524414 76.62133789 C9.33875732 76.01668701 8.30227051 75.41203613 7.234375 74.7890625 C6.31881836 74.24975098 5.40326172 73.71043945 4.45996094 73.15478516 C0.14904717 71.13110293 -2.30437103 71.85209838 -5.87890625 74.5703125 Z " fill="#226DB4" transform="translate(382,315)"/>
</svg>
