<?xml version="1.0" encoding="UTF-8"?>
<svg version="1.1" xmlns="http://www.w3.org/2000/svg" width="640" height="640">
<path d="M0 0 C4.24198826 0.01126752 8.48392559 -0.00088384 12.72591054 -0.00984204 C21.00200604 -0.02366902 29.27794744 -0.01629797 37.5540354 -0.00116646 C47.21579938 0.01581693 56.87752628 0.01246813 66.53930058 0.00873946 C83.78849056 0.00288061 101.0376072 0.01695664 118.28677785 0.04168689 C134.9824438 0.06562048 151.67801189 0.07268133 168.37369192 0.06219471 C186.6106757 0.05076031 204.84761439 0.04888509 223.08459765 0.0632928 C225.03253189 0.06481845 226.98046614 0.06633881 228.9284004 0.06785381 C230.36558198 0.06899053 230.36558198 0.06899053 231.83179754 0.07015022 C238.54973662 0.07487212 245.2676554 0.07305669 251.98559415 0.06878841 C260.1802714 0.06383894 268.37485655 0.06994762 276.56951282 0.08968271 C280.74197074 0.09948713 284.91428906 0.10473474 289.0867542 0.09679019 C321.17748502 0.04211473 321.17748502 0.04211473 336.00430715 3.50823963 C337.05854533 3.7506567 338.1127835 3.99307378 339.19896829 4.24283683 C341.70179696 4.8455623 344.16168917 5.52546854 346.62930715 6.25823963 C347.50409719 6.51427967 348.37888723 6.77031971 349.28018606 7.03411853 C357.51514361 9.52578269 365.2911435 12.71373155 373.00430715 16.50823963 C373.63530324 16.81487537 374.26629934 17.12151111 374.91641653 17.43743885 C387.79012537 23.76602813 399.28411601 31.62878282 409.7738384 41.43402088 C411.81591035 43.3330405 413.91882298 45.10661617 416.06680715 46.88323963 C421.02813561 51.21693014 424.97140309 56.3240621 429.00430715 61.50823963 C429.74809621 62.43636463 430.49188528 63.36448963 431.2582134 64.32073963 C452.65505581 91.70869791 463.22691328 125.36556612 463.25430715 159.88323963 C463.25531927 161.02573673 463.25531927 161.02573673 463.25635183 162.19131458 C463.24037555 173.53551539 462.84860704 184.47763755 460.00430715 195.50823963 C459.82738332 196.21110096 459.65045949 196.91396228 459.46817434 197.63812244 C452.86716818 223.20989586 441.17859722 246.91416928 423.0785259 266.27777088 C421.17950628 268.31984282 419.4059306 270.42275545 417.62930715 272.57073963 C413.29561663 277.53206808 408.18848467 281.47533557 403.00430715 285.50823963 C401.61211965 286.62392322 401.61211965 286.62392322 400.19180715 287.76214588 C392.27215358 293.94937523 383.89466896 298.87892599 375.00430715 303.50823963 C374.38684621 303.83066638 373.76938528 304.15309314 373.1332134 304.48529041 C351.51076134 315.59295328 328.11791506 320.66047621 303.9096874 320.65541065 C302.47549376 320.65871434 301.04130104 320.66244096 299.60710949 320.66655213 C295.67903614 320.67652341 291.75097806 320.68028105 287.82289386 320.68294144 C283.58055793 320.68685919 279.33823393 320.69643666 275.09590566 320.7051543 C264.85506507 320.72488038 254.61422354 320.73498139 244.37336871 320.74388209 C239.54130277 320.74827253 234.70923791 320.75363748 229.87717283 320.75887096 C213.79676292 320.77588167 197.71635367 320.79037243 181.63593614 320.7976197 C177.4666529 320.79952936 173.29736967 320.80144972 169.12808645 320.80340564 C167.57384942 320.80413125 167.57384942 320.80413125 165.98821367 320.80487152 C149.23005633 320.81315909 132.47197068 320.83847515 115.71384459 320.87098632 C98.4773997 320.90415049 81.2409911 320.92207701 64.00451416 320.92526394 C54.33968066 320.92742072 44.67495159 320.93604635 35.01014936 320.96172512 C26.77316697 320.9835606 18.53631438 320.9914201 10.29930633 320.98175833 C6.10602308 320.9772501 1.91300689 320.97889356 -2.28023875 320.99851978 C-24.32032368 321.0959842 -45.95048029 320.37465397 -66.99569285 313.00823963 C-67.97006297 312.67421131 -68.94443308 312.34018299 -69.94832957 311.9960326 C-90.356425 304.68190233 -108.77764008 293.6481168 -124.54256785 278.80511463 C-126.67869077 276.80505049 -128.86669881 274.934278 -131.12069285 273.07073963 C-136.06205141 268.75207259 -140.008494 263.69824346 -143.99569285 258.50823963 C-144.78975535 257.49116931 -145.58381785 256.474099 -146.40194285 255.42620838 C-167.20543859 228.05362311 -177.21863498 195.23165529 -177.24569285 161.13323963 C-177.24636759 160.37124256 -177.24704234 159.60924549 -177.24773753 158.8241576 C-177.23173597 147.45617527 -176.75134226 136.57423331 -173.99569285 125.50823963 C-173.82940379 124.78894275 -173.66311472 124.06964588 -173.4917866 123.32855213 C-168.23115131 100.80523957 -157.58580138 79.43656499 -142.99569285 61.50823963 C-142.53791453 60.94363025 -142.08013621 60.37902088 -141.60848582 59.79730213 C-126.91594314 41.79881454 -109.58626713 28.15570013 -88.99569285 17.50823963 C-88.3825825 17.18871326 -87.76947215 16.86918689 -87.13778269 16.53997791 C-59.51209394 2.3449893 -30.5534435 -0.1133285 0 0 Z M-41.74569285 61.25823963 C-43.60720258 63.94708702 -44.68135603 66.02990036 -45.87069285 69.00823963 C-47.60601834 73.2236052 -49.69864527 75.1690943 -53.2495991 77.91058338 C-58.86763019 83.05101898 -60.76412332 89.9768043 -61.24569285 97.32073963 C-61.19358992 101.88843017 -59.88468139 105.36699552 -57.99569285 109.50823963 C-57.33569285 109.83823963 -56.67569285 110.16823963 -55.99569285 110.50823963 C-55.00569285 107.86823963 -54.01569285 105.22823963 -52.99569285 102.50823963 C-50.07563636 103.23825375 -47.68334762 104.03317772 -44.93319285 105.13323963 C-39.49975369 107.00777614 -34.58897087 106.37598183 -28.99569285 105.50823963 C-22.46709418 116.81583732 -19.17019982 127.67150012 -16.61971629 140.4281615 C-15.48809465 146.01366173 -14.24536847 151.57318126 -12.99569285 157.13323963 C-12.77059031 158.18688709 -12.54548777 159.24053455 -12.31356394 160.32611072 C-9.97534702 170.77476014 -6.48017296 180.39520145 0.06680715 188.94573963 C0.48768606 189.51743885 0.90856496 190.08913806 1.34219778 190.6781615 C2.5446144 192.30189 3.77385556 193.90565145 5.00430715 195.50823963 C5.65012746 196.37320056 6.29594778 197.2381615 6.9613384 198.12933338 C9.29230869 200.84359897 11.81595198 202.92653786 14.62930715 205.13323963 C17.68136361 207.53069952 19.8445688 209.26863211 22.00430715 212.50823963 C22.22869645 214.87710894 22.36253541 217.25508733 22.44180715 219.63323963 C22.76467517 226.47261933 23.75613995 232.48973868 27.1254009 238.51214588 C28.49066549 241.61281346 27.62779526 244.26610145 27.00430715 247.50823963 C19.85326965 250.36865463 14.04721369 249.72384443 6.69180715 248.32073963 C0.36201163 247.28173943 -5.18227378 247.611658 -10.99569285 250.50823963 C-12.79299561 252.51686246 -12.79299561 252.51686246 -13.99569285 254.50823963 C-13.66569285 255.16823963 -13.33569285 255.82823963 -12.99569285 256.50823963 C-10.02569285 255.51823963 -10.02569285 255.51823963 -6.99569285 254.50823963 C-6.33569285 255.49823963 -5.67569285 256.48823963 -4.99569285 257.50823963 C-4.33569285 257.50823963 -3.67569285 257.50823963 -2.99569285 257.50823963 C-2.66569285 258.82823963 -2.33569285 260.14823963 -1.99569285 261.50823963 C-1.33569285 260.84823963 -0.67569285 260.18823963 0.00430715 259.50823963 C2.15826667 259.87961196 4.14001637 260.55283665 6.21524465 261.23480213 C10.09353958 261.61502712 12.33672328 260.2628201 15.81680715 258.57073963 C23.07823915 255.21501333 28.15241748 254.54526721 36.00430715 256.50823963 C36.00430715 257.16823963 36.00430715 257.82823963 36.00430715 258.50823963 C35.05555715 258.44636463 34.10680715 258.38448963 33.12930715 258.32073963 C32.09805715 258.38261463 31.06680715 258.44448963 30.00430715 258.50823963 C29.34430715 259.49823963 28.68430715 260.48823963 28.00430715 261.50823963 C29.76774465 261.47730213 29.76774465 261.47730213 31.56680715 261.44573963 C34.44578174 261.42044108 36.64313245 261.64513076 39.50430715 262.25823963 C43.72027668 262.55938031 45.49660482 261.4614392 49.0707134 259.43402088 C51.75862064 258.14708347 54.07935493 258.2157444 57.00430715 258.50823963 C56.24118215 259.06511463 55.47805715 259.62198963 54.69180715 260.19573963 C52.02231796 262.49274196 50.50467514 264.3407961 49.00430715 267.50823963 C49.33430715 268.16823963 49.66430715 268.82823963 50.00430715 269.50823963 C56.6432629 267.89793972 61.98356449 265.59805541 67.6800884 261.81292713 C71.57795783 259.62487941 74.06938769 259.24853978 78.37930715 260.44573963 C79.57555715 260.79636463 80.77180715 261.14698963 82.00430715 261.50823963 C86.59763759 261.82502104 89.85028117 261.52231283 94.00430715 259.50823963 C93.67430715 258.51823963 93.34430715 257.52823963 93.00430715 256.50823963 C89.23353815 254.62285513 84.6433752 255.0931039 80.4847759 254.88714588 C77.20400596 254.52998013 74.87790632 254.11345528 72.00430715 252.50823963 C70.69180715 248.88323963 70.69180715 248.88323963 70.00430715 245.50823963 C70.66430715 245.50823963 71.32430715 245.50823963 72.00430715 245.50823963 C75.06178576 241.54198904 75.68585817 237.5463514 76.19180715 232.69573963 C76.31459035 231.65643299 76.31459035 231.65643299 76.43985403 230.59613025 C76.63855008 228.90136979 76.82289918 227.20493768 77.00430715 225.50823963 C103.1018137 235.63638142 103.1018137 235.63638142 109.3597759 245.18011463 C111.97226259 248.87855184 114.80698764 249.98852049 119.00430715 251.50823963 C119.99430715 251.50823963 120.98430715 251.50823963 122.00430715 251.50823963 C122.00430715 250.84823963 122.00430715 250.18823963 122.00430715 249.50823963 C123.60810056 249.45407775 125.21242121 249.41537325 126.81680715 249.38323963 C127.71012746 249.3600365 128.60344778 249.33683338 129.5238384 249.31292713 C132.00430715 249.50823963 132.00430715 249.50823963 135.00430715 251.50823963 C137.29079564 251.74931289 137.29079564 251.74931289 139.69180715 251.63323963 C140.50004934 251.61519275 141.30829153 251.59714588 142.1410259 251.57855213 C142.75590871 251.555349 143.37079153 251.53214588 144.00430715 251.50823963 C144.46512225 247.6377416 144.46512225 247.6377416 142.54336965 245.98089588 C141.91172903 245.51554431 141.2800884 245.05019275 140.62930715 244.57073963 C138.2688931 242.8271416 137.15693273 241.91346387 136.1097759 239.13323963 C134.64836659 235.66303801 132.4846671 233.95137717 129.69180715 231.44573963 C124.0397105 226.06837872 121.62830559 220.85543525 119.00430715 213.50823963 C104.1726498 177.08807477 83.54930925 150.5707638 55.6813091 123.30169666 C53.23419928 120.90318906 50.79665161 118.49526306 48.3597759 116.08636463 C47.62421972 115.37256641 46.88866354 114.65876819 46.13081777 113.92333972 C39.55555351 107.41070602 34.08493628 100.21071368 29.9769634 91.88714588 C29.49920461 90.93710681 29.02144582 89.98706775 28.52920949 89.00823963 C28.04661672 88.03886463 27.56402395 87.06948963 27.06680715 86.07073963 C19.71500654 71.72799099 13.06800545 60.01098893 -2.80819285 54.13323963 C-17.2597212 49.82378644 -30.74920249 50.26174927 -41.74569285 61.25823963 Z M243.00430715 62.50823963 C238.33220877 69.15216447 238.01712562 76.62075891 239.00430715 84.50823963 C241.41207015 92.52982436 247.15427272 97.18425768 254.0394634 101.49261463 C259.31027171 104.21708811 265.22088383 104.26323659 271.00430715 103.50823963 C278.98512179 100.84796808 285.05183814 97.04004245 289.00430715 89.50823963 C292.46020028 82.43005851 292.7807228 75.82788433 290.2816509 68.34417713 C287.00409841 60.99451397 282.05561677 56.02684869 274.56680715 53.07073963 C261.96566825 49.08238461 251.65383313 52.66507906 243.00430715 62.50823963 Z M234.00430715 108.50823963 C232.05133783 110.88522962 232.05133783 110.88522962 230.19180715 113.94573963 C229.49442434 115.03241931 228.79704153 116.119099 228.0785259 117.23870838 C227.39403371 118.31765369 226.70954153 119.396599 226.00430715 120.50823963 C224.84272438 122.26161825 223.67675148 124.01210521 222.50430715 125.75823963 C221.7772759 126.8487865 221.7772759 126.8487865 221.03555715 127.96136463 C220.69524465 128.47183338 220.35493215 128.98230213 220.00430715 129.50823963 C218.88282278 129.268474 218.88282278 129.268474 217.73868215 129.02386463 C209.75627128 127.51861001 202.76680906 128.65073848 195.7972759 132.83245838 C189.2372872 137.46948193 185.65298116 142.53964859 184.00430715 150.50823963 C183.22789984 158.40171392 185.59343228 164.6336193 189.75430715 171.32073963 C194.81491646 176.24077646 200.8517025 179.87569636 208.00430715 180.50823963 C212.03442358 180.36927009 216.00108848 179.97423089 220.00430715 179.50823963 C220.37716848 180.0733324 220.75002981 180.63842517 221.13418996 181.22064197 C222.83143553 183.78125981 224.54264437 186.332239 226.25430715 188.88323963 C227.13409231 190.21741931 227.13409231 190.21741931 228.0316509 191.57855213 C228.60528371 192.42933338 229.17891653 193.28011463 229.76993215 194.15667713 C230.55545461 195.33496082 230.55545461 195.33496082 231.35684621 196.53704822 C233.09933127 198.88867085 233.09933127 198.88867085 237.00430715 200.50823963 C239.64430715 198.52823963 242.28430715 196.54823963 245.00430715 194.50823963 C243.3381387 189.24610001 240.07362346 185.11664375 236.87930715 180.69573963 C236.31598684 179.90747791 235.75266653 179.11921619 235.1722759 178.30706775 C233.78753057 176.37077132 232.39812088 174.43801322 231.00430715 172.50823963 C231.36524465 171.80956775 231.72618215 171.11089588 232.09805715 170.39105213 C232.56211965 169.480974 233.02618215 168.57089588 233.50430715 167.63323963 C233.96836965 166.72831775 234.43243215 165.82339588 234.91055715 164.89105213 C236.14336304 162.64227103 236.14336304 162.64227103 236.00430715 160.50823963 C249.53430715 160.50823963 263.06430715 160.50823963 277.00430715 160.50823963 C277.00430715 156.54823963 277.00430715 152.58823963 277.00430715 148.50823963 C263.47430715 148.50823963 249.94430715 148.50823963 236.00430715 148.50823963 C235.34430715 146.19823963 234.68430715 143.88823963 234.00430715 141.50823963 C232.48967982 138.67476533 232.48967982 138.67476533 231.00430715 136.50823963 C231.42840871 135.9180907 231.85251028 135.32794178 232.2894634 134.71990955 C234.20173616 132.05034525 236.10310824 129.37320026 238.00430715 126.69573963 C239.00590871 125.30258533 239.00590871 125.30258533 240.02774465 123.8812865 C240.65938528 122.98861072 241.2910259 122.09593494 241.94180715 121.17620838 C242.52833059 120.3540282 243.11485403 119.53184803 243.7191509 118.6847533 C245.25853024 116.49896193 245.25853024 116.49896193 245.00430715 113.50823963 C243.34507177 112.03434474 243.34507177 112.03434474 241.19180715 110.82073963 C240.48411184 110.38374744 239.77641653 109.94675525 239.0472759 109.49652088 C236.93244808 108.29050415 236.93244808 108.29050415 234.00430715 108.50823963 Z M289.87930715 111.50823963 C288.79262746 112.34355213 288.79262746 112.34355213 287.68399465 113.19573963 C287.12969778 113.62886463 286.5754009 114.06198963 286.00430715 114.50823963 C287.67047561 119.77037924 290.93499084 123.8998355 294.12930715 128.32073963 C294.97428762 129.50313221 294.97428762 129.50313221 295.8363384 130.7094115 C297.22108373 132.64570793 298.61049343 134.57846604 300.00430715 136.50823963 C299.65497121 137.18370838 299.30563528 137.85917713 298.9457134 138.55511463 C298.49067434 139.44714588 298.03563528 140.33917713 297.56680715 141.25823963 C297.11434621 142.13995838 296.66188528 143.02167713 296.1957134 143.93011463 C293.62118217 149.50123138 293.03870519 155.10764142 294.72305715 161.03948963 C297.8289675 169.35531412 301.92963158 174.2880376 309.72305715 178.52777088 C316.39617934 181.39584223 323.24885908 181.3739652 330.00430715 178.94573963 C336.72266059 175.98966411 342.0837815 171.92259333 345.50430715 165.32073963 C348.29692371 157.95724843 348.22840473 150.3871166 345.00430715 143.19573963 C341.18744512 136.50816727 335.62930082 131.31159728 328.21524465 128.93792713 C321.82818668 127.69662611 315.95472685 127.81714892 310.00430715 130.50823963 C309.79805715 129.86499744 309.59180715 129.22175525 309.37930715 128.55902088 C307.43063706 124.23540912 304.74522608 120.55177298 302.00430715 116.69573963 C301.45774465 115.90747791 300.91118215 115.11921619 300.34805715 114.30706775 C299.5591509 113.19041736 299.5591509 113.19041736 298.75430715 112.05120838 C298.2747759 111.37082508 297.79524465 110.69044178 297.30118215 109.9894408 C296.8732134 109.50064441 296.44524465 109.01184803 296.00430715 108.50823963 C293.1894667 108.50823963 292.08220959 109.80276677 289.87930715 111.50823963 Z M244.56680715 213.88323963 C238.90942726 221.38367528 237.84226041 228.18973151 239.00430715 237.50823963 C241.63160801 246.03237132 246.66044716 250.84873351 254.06680715 255.38323963 C261.3794274 258.11723729 270.39266576 257.69867671 277.44180715 254.50823963 C283.95820283 250.68200072 288.49189024 245.80996415 291.00430715 238.63323963 C292.83237474 231.2301336 292.10108844 224.08046773 288.36368215 217.39105213 C284.46961584 211.99754648 278.64413166 206.86013182 272.00430715 205.50823963 C261.16586418 204.33043569 252.19104598 205.62520099 244.56680715 213.88323963 Z " fill="#FFFFFF" transform="translate(176.99569284915924,159.49176037311554)"/>
</svg>
