<?xml version="1.0" encoding="UTF-8"?>
<svg version="1.1" xmlns="http://www.w3.org/2000/svg" width="600" height="600">
<path d="M0 0 C198 0 396 0 600 0 C600 198 600 396 600 600 C402 600 204 600 0 600 C0 402 0 204 0 0 Z " fill="#FEFEFE" transform="translate(0,0)"/>
<path d="M0 0 C1.52560547 -0.04253906 1.52560547 -0.04253906 3.08203125 -0.0859375 C14.22597601 1.56813229 22.35217731 15.45512458 28.86987305 23.89990234 C32.3310377 28.35902708 35.96139629 32.63572691 39.6875 36.875 C44.31529115 42.14333233 48.7314251 47.51843547 52.99707031 53.08349609 C55.49157242 56.30914537 58.07286179 59.40986048 60.796875 62.4453125 C61.40208984 63.12207031 62.00730469 63.79882812 62.63085938 64.49609375 C63.8138216 65.80822266 65.00751461 67.11077473 66.21289062 68.40234375 C67.828125 70.1953125 67.828125 70.1953125 70.1875 73.375 C69.8629271 76.40054671 69.3433615 77.22469454 67.10546875 79.3828125 C66.20441406 80.08148438 65.30335938 80.78015625 64.375 81.5 C63.38886719 82.2734375 62.40273438 83.046875 61.38671875 83.84375 C60.86513184 84.25109375 60.34354492 84.6584375 59.80615234 85.078125 C58.13189174 86.41955371 56.51076528 87.80807909 54.89453125 89.21875 C54.35868408 89.68265137 53.82283691 90.14655273 53.27075195 90.62451172 C51.74971707 91.94594742 50.23411281 93.27362614 48.71875 94.6015625 C47.8834375 95.18679688 47.048125 95.77203125 46.1875 96.375 C42.44012573 95.12587524 41.49772558 93.5811277 39.0625 90.5 C38.26328125 89.4996875 37.4640625 88.499375 36.640625 87.46875 C35.83109375 86.4478125 35.0215625 85.426875 34.1875 84.375 C29.30497048 78.34975081 24.37100294 72.36889633 19.375 66.4375 C18.91883301 65.89367676 18.46266602 65.34985352 17.99267578 64.78955078 C15.5081518 61.85079757 12.95355461 59.05078709 10.1875 56.375 C10.13928604 56.95357758 10.09107208 57.53215515 10.04139709 58.12826538 C9.4115076 65.06419165 8.33150568 71.87066672 7.12109375 78.7265625 C6.92274429 79.86660736 6.72439484 81.00665222 6.52003479 82.1812439 C5.89171359 85.78809136 5.25843895 89.39404818 4.625 93 C4.1956347 95.45957803 3.76659499 97.91921293 3.33789062 100.37890625 C2.29152415 106.37826677 1.2410999 112.37690582 0.1875 118.375 C-7.90531844 117.89461171 -15.70107358 117.02300433 -23.625 115.3125 C-24.52025391 115.12623047 -25.41550781 114.93996094 -26.33789062 114.74804688 C-28.49773125 114.29759883 -30.65574485 113.83995441 -32.8125 113.375 C-33.09277378 107.03213745 -32.01909277 101.15002135 -30.84375 94.9296875 C-30.6439856 93.84164825 -30.44422119 92.75360901 -30.23840332 91.63259888 C-29.6022848 88.1706223 -28.95813064 84.7102143 -28.3125 81.25 C-27.66749187 77.78254019 -27.02434697 74.31478018 -26.38659668 70.84597778 C-25.99035179 68.69158096 -25.58988048 66.53795614 -25.18469238 64.38522339 C-25.00450562 63.40715729 -24.82431885 62.42909119 -24.63867188 61.42138672 C-24.47878784 60.56535858 -24.31890381 59.70933044 -24.1541748 58.82736206 C-23.80359156 56.31105992 -23.75253033 53.91219199 -23.8125 51.375 C-34.84139682 57.44007143 -45.64851382 63.83147187 -56.38061523 70.40844727 C-57.41516846 71.03678467 -58.44972168 71.66512207 -59.515625 72.3125 C-60.44020508 72.87839844 -61.36478516 73.44429688 -62.31738281 74.02734375 C-64.53705601 75.22622791 -66.34849271 75.91939655 -68.8125 76.375 C-70.9598682 72.75188727 -73.09570817 69.12230218 -75.22119141 65.48632812 C-75.9456081 64.25076819 -76.67312487 63.01702036 -77.40380859 61.78515625 C-78.45453133 60.01250836 -79.49387417 58.23360835 -80.53125 56.453125 C-81.15966797 55.38481445 -81.78808594 54.31650391 -82.43554688 53.21582031 C-83.8125 50.375 -83.8125 50.375 -83.8125 46.375 C-83.15580322 45.99915771 -82.49910645 45.62331543 -81.82250977 45.23608398 C-68.50791567 37.60715025 -55.25980479 29.89068408 -42.12084961 21.96191406 C-33.575085 16.81178604 -24.96945598 11.76936155 -16.33740234 6.76538086 C-15.3933252 6.21760986 -14.44924805 5.66983887 -13.4765625 5.10546875 C-12.64592285 4.62489014 -11.8152832 4.14431152 -10.95947266 3.64916992 C-6.84240992 1.20580508 -4.85402585 0.06105693 0 0 Z " fill="#221F20" transform="translate(293.8125,344.625)"/>
<path d="M0 0 C8.35733778 4.09673421 14.02672787 12.17516692 19.59375 19.38330078 C23.00358192 23.78342017 26.54243168 28.0431759 30.1875 32.25 C34.25902831 36.95220079 38.22861228 41.7086606 42.0859375 46.58984375 C44.13301742 49.16749337 46.21948247 51.70953526 48.3125 54.25 C49.04855469 55.15363281 49.78460938 56.05726562 50.54296875 56.98828125 C51.85173974 58.59251405 53.16246569 60.19522561 54.48681641 61.78662109 C56.04479897 63.66077246 57.58574428 65.54795468 59.125 67.4375 C59.87197144 68.32453613 59.87197144 68.32453613 60.6340332 69.22949219 C63.97767398 73.37710418 63.97767398 73.37710418 64.078125 76.1796875 C62.61986159 78.6418279 60.91278375 79.96624945 58.625 81.6875 C53.79673734 85.38500574 49.10921989 89.21473438 44.4453125 93.1171875 C42.33782323 94.73988691 40.4216934 95.92994943 38 97 C37.67128906 96.55011719 37.34257812 96.10023437 37.00390625 95.63671875 C32.53394794 89.59197839 27.783832 83.79762421 23 78 C17.283525 71.03912228 11.61007115 64.0469831 6 57 C3.9647968 63.46933066 2.80833946 70.04551514 1.6171875 76.71484375 C1.39805695 77.92572159 1.17892639 79.13659943 0.95315552 80.38417053 C0.25711736 84.23468989 -0.43400784 88.08607225 -1.125 91.9375 C-1.59693367 94.55546948 -2.06998442 97.17323558 -2.54296875 99.79101562 C-3.69902933 106.19334488 -4.85106233 112.59638888 -6 119 C-10.90134732 118.4858511 -15.76897731 117.94066186 -20.62109375 117.0625 C-21.57564453 116.88976562 -22.53019531 116.71703125 -23.51367188 116.5390625 C-24.9609668 116.27222656 -24.9609668 116.27222656 -26.4375 116 C-27.42943359 115.82210937 -28.42136719 115.64421875 -29.44335938 115.4609375 C-30.38888672 115.28820312 -31.33441406 115.11546875 -32.30859375 114.9375 C-33.58947876 114.70353516 -33.58947876 114.70353516 -34.89624023 114.46484375 C-37 114 -37 114 -39 113 C-38.40491074 106.08055478 -37.45402081 99.29411802 -36.22265625 92.4609375 C-36.05124619 91.49523834 -35.87983612 90.52953918 -35.70323181 89.53457642 C-35.34279429 87.50905411 -34.98051206 85.48385927 -34.61645508 83.45898438 C-34.06288942 80.37716796 -33.51637376 77.29416051 -32.97070312 74.2109375 C-32.61760539 72.23169624 -32.26410351 70.25252702 -31.91015625 68.2734375 C-31.74862564 67.36177826 -31.58709503 66.45011902 -31.42066956 65.51083374 C-30.47536954 60.2771802 -29.34921633 55.14475225 -28 50 C-31.84744626 52.25018838 -35.69413221 54.50167032 -39.54034424 56.75396729 C-41.55285159 57.93185295 -43.56619309 59.10830339 -45.57958984 60.28466797 C-53.91162387 65.15652837 -53.91162387 65.15652837 -62.16015625 70.16796875 C-62.85230225 70.59537354 -63.54444824 71.02277832 -64.25756836 71.46313477 C-65.99218345 72.54236515 -67.71908694 73.63396327 -69.4453125 74.7265625 C-72 76 -72 76 -75 75 C-77.47950766 71.64568013 -79.55831343 68.0468783 -81.68994141 64.46313477 C-82.74530332 62.6953671 -83.82264072 60.94243198 -84.90234375 59.18945312 C-85.56878906 58.07892578 -86.23523438 56.96839844 -86.921875 55.82421875 C-87.53643555 54.80416748 -88.15099609 53.78411621 -88.78417969 52.7331543 C-90 50 -90 50 -89.96289062 47.81445312 C-88.63302349 45.30847632 -87.14121429 44.52920521 -84.671875 43.14453125 C-83.74181641 42.6134375 -82.81175781 42.08234375 -81.85351562 41.53515625 C-80.82935547 40.96667969 -79.80519531 40.39820313 -78.75 39.8125 C-76.54641485 38.55940258 -74.34331049 37.30545941 -72.140625 36.05078125 C-70.96290232 35.38490771 -69.78516776 34.71905517 -68.60742188 34.05322266 C-63.14532502 30.95528104 -57.73920688 27.76171959 -52.32815552 24.57577515 C-49.28733925 22.78641175 -46.2432149 21.00269672 -43.19921875 19.21875 C-42.60209579 18.86870407 -42.00497284 18.51865814 -41.38975525 18.15800476 C-35.03415716 14.43269525 -28.6744907 10.71438218 -22.3125 7 C-20.78882813 6.10958008 -20.78882813 6.10958008 -19.234375 5.20117188 C-17.84412109 4.3900293 -17.84412109 4.3900293 -16.42578125 3.5625 C-15.61536377 3.08941406 -14.80494629 2.61632813 -13.9699707 2.12890625 C-9.3339692 -0.52778863 -5.2914226 -0.57248776 0 0 Z " fill="#221F20" transform="translate(355,30)"/>
<path d="M0 0 C9.01599195 4.08939635 15.26800633 14.33630874 21.28515625 21.87255859 C23.75949279 24.94222953 26.31204176 27.94179925 28.875 30.9375 C32.64106201 35.35935067 36.29961759 39.85361565 39.90625 44.40625 C42.38811291 47.48079659 44.93856857 50.49171584 47.5 53.5 C52.10848129 58.91496551 56.62321455 64.39482429 61 70 C61.5671875 70.71027344 62.134375 71.42054688 62.71875 72.15234375 C64 74 64 74 64 76 C62.45111498 77.41706502 60.83238466 78.75809496 59.1875 80.0625 C57.69089844 81.25746094 57.69089844 81.25746094 56.1640625 82.4765625 C55.64231445 82.89067383 55.12056641 83.30478516 54.58300781 83.73144531 C51.14808346 86.48404663 47.78873624 89.3310553 44.41015625 92.15234375 C42.31731509 93.75674224 40.40066637 94.93613161 38 96 C31.63795335 88.62605422 25.30547619 81.23814216 19.171875 73.671875 C17.63149969 71.77688091 16.07804029 69.89248865 14.515625 68.015625 C13.70609375 67.04109375 12.8965625 66.0665625 12.0625 65.0625 C11.33160156 64.18722656 10.60070312 63.31195313 9.84765625 62.41015625 C8.24325776 60.31731509 7.06386839 58.40066637 6 56 C5.34 56 4.68 56 4 56 C3.90275635 56.73508789 3.8055127 57.47017578 3.70532227 58.22753906 C2.21785649 69.06214645 0.3645292 79.82704264 -1.51391602 90.59960938 C-2.06850666 93.78449488 -2.61739989 96.97033047 -3.16601562 100.15625 C-3.51788781 102.18235098 -3.87008897 104.20839486 -4.22265625 106.234375 C-4.38621109 107.18632751 -4.54976593 108.13828003 -4.71827698 109.11907959 C-4.87191208 109.99469543 -5.02554718 110.87031128 -5.18383789 111.77246094 C-5.38463707 112.92823639 -5.38463707 112.92823639 -5.5894928 114.10736084 C-6 116 -6 116 -7 118 C-14.50151409 117.62166277 -21.79699013 116.80828487 -29.1875 115.5 C-29.92991943 115.36940186 -30.67233887 115.23880371 -31.43725586 115.10424805 C-36.72907759 114.1354612 -36.72907759 114.1354612 -39 113 C-39.2004135 106.61985961 -38.45002794 100.74455611 -37.3203125 94.47265625 C-37.14748749 93.48430283 -36.97466248 92.4959494 -36.79660034 91.47764587 C-36.43152839 89.39705599 -36.06323602 87.31702888 -35.69189453 85.23754883 C-35.12756319 82.07685585 -34.57266059 78.91462376 -34.01953125 75.75195312 C-33.66200797 73.72125732 -33.30395256 71.69065512 -32.9453125 69.66015625 C-32.78064484 68.72551041 -32.61597717 67.79086456 -32.44631958 66.82789612 C-31.43627026 61.18191174 -30.2810303 55.59088907 -29 50 C-32.84747427 52.25020476 -36.69433795 54.50144896 -40.5406189 56.75369263 C-41.88427785 57.54040228 -43.22804751 58.32692287 -44.57192993 59.11325073 C-53.27729847 64.2077095 -61.95404649 69.33956996 -70.54296875 74.62890625 C-73 76 -73 76 -75 76 C-76.48046875 73.8762207 -76.48046875 73.8762207 -78.1875 70.92578125 C-79.11175781 69.33540039 -79.11175781 69.33540039 -80.0546875 67.71289062 C-80.69664062 66.59076172 -81.33859375 65.46863281 -82 64.3125 C-82.96292969 62.65831055 -82.96292969 62.65831055 -83.9453125 60.97070312 C-86.59295364 56.38718212 -89.14205561 51.96830191 -91 47 C-81.05441384 40.74515871 -70.91429438 34.83754591 -60.7578125 28.93359375 C-55.99642276 26.16539306 -51.24173949 23.3861139 -46.4921875 20.59765625 C-45.85798889 20.22538406 -45.22379028 19.85311188 -44.57037354 19.46955872 C-42.07308984 18.00343266 -39.57592046 16.53711483 -37.07958984 15.06936646 C-33.6424921 13.04863742 -30.20085996 11.03598079 -26.75558472 9.02920532 C-24.9060291 7.94490989 -23.06547059 6.84621675 -21.22485352 5.74682617 C-19.98211553 5.01450237 -18.7392008 4.2824784 -17.49609375 3.55078125 C-16.38935303 2.89247314 -15.2826123 2.23416504 -14.14233398 1.5559082 C-9.29583017 -0.84380968 -5.22230046 -1.41981294 0 0 Z " fill="#221F20" transform="translate(327,193)"/>
<path d="M0 0 C0.62491333 1.18251343 0.62491333 1.18251343 1.26245117 2.38891602 C8.28130077 15.6538007 15.29699774 28.90969805 22.75 41.9375 C27.21765841 49.75520762 31.51973763 57.64309213 35.6875 65.625 C36.19313477 66.59171631 36.69876953 67.55843262 37.21972656 68.55444336 C44.34782578 82.31079059 44.34782578 82.31079059 43 89 C37.97801774 99.38443789 25.56626637 107.61909602 16.78125 114.6875 C13.75980812 117.1997101 10.87558227 119.82400827 8 122.5 C4.26670522 125.9741715 0.47629157 129.30068494 -3.5 132.5 C-7.5541921 135.76327312 -11.43159846 139.15580641 -15.25 142.6875 C-15.75450684 143.15389893 -16.25901367 143.62029785 -16.77880859 144.10083008 C-17.26687988 144.55224365 -17.75495117 145.00365723 -18.2578125 145.46875 C-27.5 154 -27.5 154 -30 154 C-31.375 152.41796875 -31.375 152.41796875 -33 150.1875 C-36.63124009 145.35856097 -40.62630865 140.97454175 -44.765625 136.578125 C-46.85934718 134.16229171 -48.45452315 131.78988679 -50 129 C-43.1060224 122.52251071 -36.17241651 116.22543321 -28.78125 110.3125 C-25.00802385 107.17521084 -21.43116108 103.84100967 -17.88256836 100.45288086 C-14.2119884 97 -14.2119884 97 -12 97 C-12 96.34 -12 95.68 -12 95 C-31.28247191 91.0398507 -50.62455326 87.46971971 -70 84 C-69.41263068 76.88297728 -68.36483764 69.94465557 -67 62.9375 C-66.82210938 61.98939453 -66.64421875 61.04128906 -66.4609375 60.06445312 C-65.12842447 53.12842447 -65.12842447 53.12842447 -64 52 C-56.6589918 52.1940422 -49.39150975 53.51511832 -42.1875 54.84765625 C-41.21135742 55.02380966 -40.23521484 55.19996307 -39.22949219 55.38145447 C-36.15216114 55.93731835 -33.076019 56.49942475 -30 57.0625 C-26.89528635 57.62837074 -23.79033712 58.19284282 -20.68481445 58.7542572 C-18.76227291 59.10203915 -16.84021279 59.45249547 -14.91870117 59.80592346 C-14.05349854 59.96286179 -13.1882959 60.11980011 -12.296875 60.28149414 C-11.53729492 60.42059708 -10.77771484 60.55970001 -9.99511719 60.70301819 C-7.84163228 61.07361605 -7.84163228 61.07361605 -5 61 C-6.96405416 57.31356165 -8.93041799 53.6283668 -10.89892578 49.94430542 C-11.5893124 48.65183887 -12.27925647 47.35913583 -12.96875 46.06619263 C-17.37737312 37.80198123 -21.81028169 29.55695627 -26.64819336 21.53320312 C-27.65625 19.80859375 -27.65625 19.80859375 -29 17 C-27.65687556 12.97062667 -25.99112234 12.61916987 -22.28515625 10.64453125 C-21.12435547 10.02255859 -19.96355469 9.40058594 -18.76757812 8.75976562 C-18.15986572 8.44048096 -17.55215332 8.12119629 -16.92602539 7.79223633 C-15.06793174 6.8153557 -13.21813159 5.82406143 -11.36914062 4.83007812 C-2.28819082 0 -2.28819082 0 0 0 Z " fill="#221F20" transform="translate(497,289)"/>
<path d="M0 0 C0.65603018 4.79424133 1.12290314 9.40259682 1.09765625 14.25 C1.09282227 15.90322266 1.09282227 15.90322266 1.08789062 17.58984375 C1.07532227 19.27787109 1.07532227 19.27787109 1.0625 21 C1.05798828 22.15628906 1.05347656 23.31257813 1.04882812 24.50390625 C1.03712529 27.33599225 1.02072996 30.16796811 1 33 C-37.07092961 34.19388403 -37.07092961 34.19388403 -52 34 C-52 34.66 -52 35.32 -52 36 C-51.4225 36.23074219 -50.845 36.46148437 -50.25 36.69921875 C-47.42491964 38.33246834 -45.99536205 40.23137826 -44 42.8125 C-40.49594764 47.22138167 -36.85574783 51.39661851 -33 55.5 C-28.45076751 60.35793554 -24.15223057 65.35296269 -19.98046875 70.54296875 C-17.38939188 73.75753947 -14.70389506 76.88012108 -12 80 C-14.76521065 83.68264036 -17.64294837 86.52027628 -21.25 89.375 C-25.94299681 93.13569677 -30.51057283 96.99939298 -35 101 C-39.18176914 99.40079613 -41.76733986 96.31127151 -44.6875 93.0625 C-45.48414063 92.18851563 -45.48414063 92.18851563 -46.296875 91.296875 C-50.23991014 86.93578312 -53.95818417 82.41882919 -57.640625 77.8359375 C-63.70525595 70.54633142 -70.28453466 63.68867117 -77 57 C-77.153479 58.17876709 -77.153479 58.17876709 -77.31005859 59.38134766 C-78.72492711 69.78637124 -80.64026444 80.06640381 -82.625 90.375 C-82.95342103 92.09369346 -83.28154786 93.81244316 -83.609375 95.53125 C-84.40286954 99.68815436 -85.20030748 103.84428373 -86 108 C-90.56006325 108.10005624 -94.68850635 107.83139765 -99.15234375 106.90625 C-100.25771484 106.68066406 -101.36308594 106.45507812 -102.50195312 106.22265625 C-103.63568359 105.98417969 -104.76941406 105.74570313 -105.9375 105.5 C-107.09830078 105.26152344 -108.25910156 105.02304688 -109.45507812 104.77734375 C-112.30470751 104.19100025 -115.15288 103.59838855 -118 103 C-117.25012201 93.63387684 -115.61648596 84.44901124 -113.98046875 75.20703125 C-113.75764945 73.94308312 -113.75764945 73.94308312 -113.53032875 72.65360069 C-112.74548839 68.20326821 -111.95606713 63.75377692 -111.1628418 59.30493164 C-110.3476414 54.72751874 -109.54846189 50.14745857 -108.75283337 45.56660938 C-108.13459155 42.02443671 -107.50445827 38.48445327 -106.87111855 34.94495201 C-106.57127006 33.25734273 -106.27585951 31.56893835 -105.98509789 29.87973976 C-105.57710792 27.51610202 -105.15227297 25.15606588 -104.72338867 22.79614258 C-104.60843048 22.10766235 -104.49347229 21.41918213 -104.37503052 20.70983887 C-103.32063053 15.07253088 -101.32470062 10.49484717 -97.38136292 6.26289368 C-90.83619823 1.92530687 -83.78078575 2.07329705 -76.15234375 1.85546875 C-74.6942232 1.79725517 -73.23617899 1.73710091 -71.7782135 1.67512512 C-67.94240484 1.51783723 -64.10613715 1.38919456 -60.269104 1.26599121 C-57.20231772 1.16275079 -54.1365232 1.03914345 -51.0705471 0.91441154 C-34.04517338 0.22263541 -17.04164214 -0.18707844 0 0 Z " fill="#221F20" transform="translate(254,106)"/>
<path d="M0 0 C2.99398081 1.15661928 4.9104814 2.69784993 7.05859375 5.046875 C7.60966797 5.645 8.16074219 6.243125 8.72851562 6.859375 C9.57446289 7.79523438 9.57446289 7.79523438 10.4375 8.75 C10.99759766 9.3584375 11.55769531 9.966875 12.13476562 10.59375 C13.77234972 12.38228992 15.38940964 14.18714479 17 16 C17.50289551 16.55623047 18.00579102 17.11246094 18.52392578 17.68554688 C22 21.64770826 22 21.64770826 22 25 C20.7421875 26.40234375 20.7421875 26.40234375 18.875 27.9375 C18.14539063 28.54980469 17.41578125 29.16210938 16.6640625 29.79296875 C15.78492188 30.52128906 14.90578125 31.24960937 14 32 C11.74306517 33.90857263 9.49602355 35.82860663 7.25 37.75 C6.65251953 38.25966309 6.05503906 38.76932617 5.43945312 39.29443359 C0.35359596 43.65120888 -4.58009731 48.1548579 -9.4765625 52.72265625 C-11.58225466 54.62299453 -13.69631196 56.35064588 -16 58 C-9.73869057 59.97151374 -3.40678469 61.06894511 3.05859375 62.1640625 C4.20288345 62.36099701 5.34717316 62.55793152 6.52613831 62.76083374 C10.16265008 63.3858347 13.80004903 64.00549099 17.4375 64.625 C19.91086785 65.04912617 22.38417585 65.47360149 24.85742188 65.8984375 C30.90426067 66.93633643 36.95183573 67.96985475 43 69 C42.47616718 73.99826162 41.90438789 78.95910064 41.02734375 83.91015625 C40.85009766 84.91884766 40.67285156 85.92753906 40.49023438 86.96679688 C40.30783203 87.98837891 40.12542969 89.00996094 39.9375 90.0625 C39.75123047 91.11888672 39.56496094 92.17527344 39.37304688 93.26367188 C38.91788796 95.8429057 38.46015627 98.4216539 38 101 C26.94348113 100.57829725 16.23875047 98.58665528 5.38525391 96.56152344 C2.34792828 95.99495013 -0.69106034 95.43809373 -3.73046875 94.8828125 C-5.66676864 94.52659554 -7.60297037 94.16984446 -9.5390625 93.8125 C-10.44524323 93.64580811 -11.35142395 93.47911621 -12.2850647 93.30737305 C-13.1237912 93.15051025 -13.9625177 92.99364746 -14.82666016 92.83203125 C-15.56244293 92.69514893 -16.29822571 92.5582666 -17.05630493 92.41723633 C-19 92 -19 92 -22 91 C-21.64881104 91.64251709 -21.29762207 92.28503418 -20.93579102 92.94702148 C-16.91613016 100.30797207 -12.9194174 107.68106916 -8.9375 115.0625 C-8.0393457 116.72249023 -8.0393457 116.72249023 -7.12304688 118.41601562 C-3.63220718 124.88917182 -0.23874509 131.39690495 3 138 C2.08504761 138.52170776 2.08504761 138.52170776 1.15161133 139.05395508 C-1.6284199 140.63956339 -4.40796408 142.2260236 -7.1875 143.8125 C-8.62706055 144.63331055 -8.62706055 144.63331055 -10.09570312 145.47070312 C-11.02705078 146.00244141 -11.95839844 146.53417969 -12.91796875 147.08203125 C-14.19837036 147.81256714 -14.19837036 147.81256714 -15.50463867 148.55786133 C-18.05067284 149.98890458 -18.05067284 149.98890458 -20.56762695 151.74487305 C-23 153 -23 153 -25.11157227 153.02587891 C-27.95326718 151.48214238 -28.74758092 149.44206497 -30.21484375 146.5859375 C-30.81176025 145.44431152 -31.40867676 144.30268555 -32.02368164 143.12646484 C-32.33532257 142.51550964 -32.6469635 141.90455444 -32.9680481 141.27508545 C-34.61629254 138.04459484 -36.30818672 134.83694973 -37.9921875 131.625 C-38.50112297 130.64930557 -38.50112297 130.64930557 -39.02033997 129.65390015 C-42.07068811 123.81882137 -45.28769643 118.08699656 -48.5625 112.375 C-54.07582221 102.72604116 -59.36936384 92.96777272 -64.59594727 83.16162109 C-65.15725342 82.11055176 -65.71855957 81.05948242 -66.296875 79.9765625 C-66.79541992 79.03893066 -67.29396484 78.10129883 -67.80761719 77.13525391 C-68.82669859 75.08243026 -68.82669859 75.08243026 -70 74 C-70.79403262 68.8438135 -70.77872435 64.34370319 -67.6875 60 C-61.81788555 53.15211647 -54.76038136 47.38128995 -47.75 41.75 C-42.43428842 37.46705524 -37.50523653 32.84268961 -32.55004883 28.15551758 C-28.1405989 24.00607334 -23.58057952 20.14486305 -18.84375 16.37109375 C-14.60222304 12.83454586 -10.60016989 9.05042753 -6.59350586 5.25170898 C-2.1947768 1.0973884 -2.1947768 1.0973884 0 0 Z " fill="#221F20" transform="translate(129,225)"/>
<path d="M0 0 C5.92276647 1.88764404 11.6585956 4.01848277 17.36328125 6.484375 C18.53060539 6.98309868 18.53060539 6.98309868 19.72151184 7.49189758 C22.25343259 8.5742608 24.78317648 9.66158236 27.3125 10.75 C30.88826653 12.28763019 34.46493493 13.82312138 38.04296875 15.35546875 C38.94942139 15.74371323 39.85587402 16.1319577 40.78979492 16.53196716 C46.96888738 19.16608159 53.18311626 21.69661548 59.42578125 24.17578125 C61.8755112 25.15847332 64.32467472 26.14256643 66.77377319 27.12683105 C68.32721335 27.7450214 69.88402404 28.35481569 71.44424438 28.95568848 C86.75116087 34.85476551 86.75116087 34.85476551 90.08642578 40.739151 C92.92743986 47.76989213 90.60990194 56.53355383 89.2421875 63.71875 C89.05842056 64.72370514 88.87465363 65.72866028 88.68531799 66.7640686 C88.08989783 70.01091529 87.48247866 73.25539007 86.875 76.5 C86.46266581 78.73794233 86.05129519 80.97606241 85.64086914 83.21435547 C84.81953622 87.69133937 83.99465992 92.16764761 83.16748047 96.64355469 C81.54231693 105.46217116 79.98559199 114.29258887 78.4375 123.125 C78.1841847 124.56577326 77.93077034 126.00652911 77.67724609 127.44726562 C77.11726098 130.63135304 76.55812417 133.81558598 76 137 C68.27044073 136.49695719 60.82289987 135.55617875 53.25 133.9375 C52.35023438 133.75123047 51.45046875 133.56496094 50.5234375 133.37304688 C48.3475547 132.92166693 46.17322272 132.46398628 44 132 C43.76789126 125.96879935 44.6570429 120.3948848 45.75 114.47265625 C45.92756836 113.48373886 46.10513672 112.49482147 46.28808594 111.47593689 C46.85303826 108.3370664 47.42638857 105.1997984 48 102.0625 C48.3859733 99.9265328 48.77139593 97.79046602 49.15625 95.65429688 C50.09779455 90.43502813 51.04622719 85.21704721 52 80 C39.2866894 86.86007261 26.58697311 93.74048646 13.97265625 100.78125 C13.33215332 101.13574219 12.69165039 101.49023438 12.03173828 101.85546875 C10.54510668 102.69292717 9.07113251 103.55296495 7.60498047 104.42578125 C6.80592285 104.89371094 6.00686523 105.36164063 5.18359375 105.84375 C4.4558374 106.27880859 3.72808105 106.71386719 2.97827148 107.16210938 C1 108 1 108 -2 107 C-4.37093687 103.64562548 -6.31842668 100.04953965 -8.31762695 96.46313477 C-9.30877174 94.69415414 -10.32601429 92.94209716 -11.34570312 91.18945312 C-11.97025391 90.07892578 -12.59480469 88.96839844 -13.23828125 87.82421875 C-13.81618408 86.80416748 -14.39408691 85.78411621 -14.98950195 84.7331543 C-16 82 -16 82 -15.48974609 79.82324219 C-13.55744159 77.45837001 -11.63936372 76.40911663 -8.92578125 75.00390625 C-7.87567871 74.45105957 -6.82557617 73.89821289 -5.74365234 73.32861328 C-4.61137207 72.7457959 -3.4790918 72.16297852 -2.3125 71.5625 C0.04412847 70.32374673 2.39960108 69.08298731 4.75390625 67.83984375 C5.35330017 67.52474854 5.95269409 67.20965332 6.57025146 66.88500977 C12.82482619 63.58842769 18.98027947 60.12156308 25.125 56.625 C26.11975342 56.05982666 27.11450684 55.49465332 28.1394043 54.91235352 C30.42759931 53.61054425 32.7145534 52.30662641 35 51 C28.88710875 47.71165926 22.60577932 44.94994568 16.18359375 42.3359375 C15.00236435 41.85389862 15.00236435 41.85389862 13.79727173 41.36212158 C10.50341436 40.02089381 7.20797478 38.68393326 3.90698242 37.36035156 C1.47425561 36.38281318 -0.95258539 35.39174876 -3.37890625 34.3984375 C-4.50529259 33.95303116 -4.50529259 33.95303116 -5.6544342 33.49862671 C-7.47272656 32.74862484 -9.24257274 31.88325496 -11 31 C-12.32158942 27.03523174 -11.31150375 25.65968464 -9.7265625 21.8359375 C-9.2315625 20.63195312 -8.7365625 19.42796875 -8.2265625 18.1875 C-7.96391602 17.56230469 -7.70126953 16.93710938 -7.43066406 16.29296875 C-6.62659034 14.37878598 -5.83555715 12.45963139 -5.046875 10.5390625 C-1.16411973 1.16411973 -1.16411973 1.16411973 0 0 Z " fill="#221F20" transform="translate(420,135)"/>
<path d="M0 0 C3.27102739 0.14166405 6.54177036 0.28913244 9.8125 0.4375 C10.72193359 0.47681641 11.63136719 0.51613281 12.56835938 0.55664062 C19.06650928 0.85514221 25.52674112 1.36013269 32 2 C31.35133981 19.00073703 30.68570392 36.00071636 30 53 C30.5762915 52.59910156 31.15258301 52.19820313 31.74633789 51.78515625 C46.49755859 41.5234375 61.2487793 31.26171875 76 21 C79.16039829 22.3479654 80.75594157 23.63391236 82.65625 26.484375 C83.12160156 27.17273438 83.58695312 27.86109375 84.06640625 28.5703125 C84.77603516 29.64925781 84.77603516 29.64925781 85.5 30.75 C85.97308594 31.45382812 86.44617188 32.15765625 86.93359375 32.8828125 C88.2979513 34.91612099 89.6502017 36.95700709 91 39 C91.78067979 40.17225494 92.56186478 41.34417373 93.34375 42.515625 C93.8903125 43.33546875 94.436875 44.1553125 95 45 C93.61263391 48.29992088 92.18369938 49.88496704 89.23828125 51.890625 C88.45960693 52.42776123 87.68093262 52.96489746 86.87866211 53.51831055 C85.60841187 54.37549683 85.60841187 54.37549683 84.3125 55.25 C83.43924072 55.85046143 82.56598145 56.45092285 81.66625977 57.06958008 C79.78212242 58.36505953 77.8955474 59.65699919 76.00683594 60.94580078 C70.80057934 64.50259219 65.61932162 68.09525216 60.4375 71.6875 C58.94827026 72.71182129 58.94827026 72.71182129 57.42895508 73.75683594 C56.50236084 74.39782227 55.5757666 75.03880859 54.62109375 75.69921875 C53.8005249 76.26471436 52.97995605 76.83020996 52.13452148 77.4128418 C50.23342514 78.82643294 48.61583131 80.2740798 47 82 C47.95664551 82.11174561 48.91329102 82.22349121 49.89892578 82.33862305 C54.58629299 83.01213924 59.0697848 84.28405119 63.6171875 85.58203125 C64.51494904 85.83748215 65.41271057 86.09293304 66.337677 86.35612488 C68.22266118 86.89552297 70.10683724 87.43775237 71.99023438 87.98266602 C74.88251249 88.81466105 77.78078033 89.62309355 80.6796875 90.43164062 C82.51343747 90.95949226 84.34678626 91.48874002 86.1796875 92.01953125 C87.04939178 92.25823441 87.91909607 92.49693756 88.81515503 92.74287415 C89.61333649 92.97959335 90.41151794 93.21631256 91.23388672 93.46020508 C91.93891327 93.66148514 92.64393982 93.8627652 93.37033081 94.07014465 C95 95 95 95 95.77418518 96.91294861 C96.10622303 99.98174653 95.24928937 102.3561639 94.34765625 105.296875 C93.98349609 106.50214844 93.61933594 107.70742188 93.24414062 108.94921875 C92.65922852 110.83060547 92.65922852 110.83060547 92.0625 112.75 C91.67160316 114.03227111 91.2816187 115.31482073 90.89257812 116.59765625 C89.93733445 119.73462932 88.97283319 122.86844586 88 126 C82.99398772 125.38701736 78.2729654 124.35584597 73.43164062 122.93041992 C72.7103447 122.72212051 71.98904877 122.51382111 71.24589539 122.29920959 C68.88117693 121.6146879 66.51863049 120.92301266 64.15625 120.23046875 C62.50155286 119.74807271 60.8468076 119.26584169 59.1920166 118.7837677 C55.73133513 117.77420514 52.27182281 116.76074435 48.81298828 115.74487305 C44.3942653 114.44771255 39.97196682 113.16323696 35.54859161 111.88204479 C32.13229442 110.89047134 28.71844494 109.89067221 25.30522156 108.8885746 C23.67627931 108.41169511 22.04649538 107.93768046 20.41584778 107.46666527 C18.1307417 106.80558748 15.84929006 106.13308603 13.56835938 105.45776367 C12.90321823 105.26799957 12.23807709 105.07823547 11.55278015 104.88272095 C6.46403215 103.35614125 0.93511497 101.35190896 -2.5234375 97.1484375 C-2.80445312 96.56320312 -3.08546875 95.97796875 -3.375 95.375 C-4.23999119 93.57847984 -5.10829439 91.78341121 -6 90 C-6.60394898 80.92026704 -5.59630167 71.73309981 -4.94140625 62.67578125 C-4.8314257 61.11884976 -4.72172535 59.56189845 -4.61228943 58.00492859 C-4.38349754 54.7614917 -4.15211902 51.51825368 -3.91870117 48.27514648 C-3.62094003 44.13667448 -3.32852073 39.9978467 -3.03788853 35.8588686 C-2.81224722 32.65099453 -2.58437731 29.44328187 -2.35578728 26.23561668 C-2.24721295 24.70996109 -2.13917673 23.18426709 -2.03170967 21.6585331 C-1.00074163 7.06605118 -1.00074163 7.06605118 0 0 Z " fill="#232021" transform="translate(102,395)"/>
<path d="M0 0 C5.86629052 1.09575358 11.52711185 2.82746579 17.25 4.5 C18.36375 4.82097656 19.4775 5.14195312 20.625 5.47265625 C21.68203125 5.78074219 22.7390625 6.08882813 23.828125 6.40625 C24.7965332 6.68791016 25.76494141 6.96957031 26.76269531 7.25976562 C29 8 29 8 30 9 C29.50388246 13.99772491 28.35434533 18.69796428 26.91455078 23.49243164 C26.59969223 24.56215462 26.59969223 24.56215462 26.2784729 25.65348816 C25.58907865 27.9905548 24.89248971 30.32540059 24.1953125 32.66015625 C23.71041131 34.29479547 23.22578641 35.92951668 22.74142456 37.5643158 C21.72752745 40.9820901 20.71000189 44.3987576 19.68994141 47.81469727 C18.38598391 52.18255801 17.09156605 56.55317819 15.79991341 60.9246912 C14.80188528 64.29828107 13.79857099 67.6702812 12.79369736 71.04183769 C12.31440805 72.65241237 11.83679893 74.26348807 11.36093521 75.8750782 C10.69409336 78.13068809 10.02008854 80.38403835 9.34423828 82.63696289 C9.15087891 83.29634857 8.95751953 83.95573425 8.75830078 84.63510132 C6.53612025 91.98097687 4.13327623 96.52781941 -2 101 C-16.80741213 105.93580404 -36.63584594 101.11428077 -51.99287415 99.6530304 C-61.03055555 98.79759562 -70.07764772 98.05719353 -79.125 97.3125 C-80.72526893 97.18003445 -82.32552958 97.04746885 -83.92578125 96.91479492 C-87.61710807 96.60889712 -91.30852393 96.3040921 -95 96 C-95.0438858 89.31263958 -95.02195796 82.67274325 -94.5625 76 C-94.48128906 74.7625 -94.40007812 73.525 -94.31640625 72.25 C-94.06649073 69.68296655 -93.66050281 67.47142892 -93 65 C-82.23717577 64.65837325 -71.53279401 65.67628338 -60.8125 66.5 C-58.88739792 66.64490539 -56.96226787 66.78943976 -55.03710938 66.93359375 C-50.35773938 67.28478374 -45.67877701 67.6409999 -41 68 C-41.36649658 67.47792969 -41.73299316 66.95585938 -42.1105957 66.41796875 C-48.85771348 56.80298388 -55.60370309 47.18866962 -62.20922852 37.47558594 C-64.24116532 34.50045456 -66.30130311 31.56769037 -68.4921875 28.70703125 C-69.23726563 27.73121094 -69.98234375 26.75539063 -70.75 25.75 C-71.40484375 24.91984375 -72.0596875 24.0896875 -72.734375 23.234375 C-74 21 -74 21 -74.109375 19.0078125 C-72.34675013 15.81770975 -69.45782536 14.11382328 -66.5 12.125 C-65.86795654 11.68953857 -65.23591309 11.25407715 -64.5847168 10.80541992 C-63.31670942 9.93407872 -62.04550162 9.0673749 -60.77099609 8.20556641 C-59.22405838 7.15252279 -57.69798483 6.0689601 -56.17578125 4.98046875 C-55.39589844 4.43003906 -54.61601562 3.87960937 -53.8125 3.3125 C-53.13832031 2.83425781 -52.46414063 2.35601562 -51.76953125 1.86328125 C-50 1 -50 1 -47 2 C-45.33383109 4.17485302 -43.81439884 6.34004332 -42.3125 8.625 C-41.33825512 10.07490165 -40.36292614 11.52407522 -39.38671875 12.97265625 C-38.85224121 13.76945801 -38.31776367 14.56625977 -37.76708984 15.38720703 C-34.43566895 20.31299681 -31.0254428 25.18423091 -27.625 30.0625 C-26.94735596 31.03719238 -26.26971191 32.01188477 -25.5715332 33.01611328 C-22.08008101 38.03456198 -18.56708174 43.03500785 -15 48 C-13.60193421 43.52152773 -12.20631434 39.04229704 -10.8125 34.5625 C-10.60713623 33.90261078 -10.40177246 33.24272156 -10.19018555 32.56283569 C-7.52128045 23.98045108 -4.88394681 15.39112701 -2.40942383 6.75024414 C-1.73337061 4.40274276 -1.09523057 2.19046113 0 0 Z " fill="#221F20" transform="translate(434,452)"/>
<path d="M0 0 C7.64185496 5.61284873 12.00499341 11.01498023 15 20 C15.90782543 30.6111399 14.56306005 38.95597784 7.75 47.3125 C0.89061063 54.56762337 -6.71539106 57.91645656 -16.6875 58.5 C-25.8092466 58.30592029 -33.20365073 54.29540777 -39.5 47.8125 C-45.01023145 40.97062928 -47.74797779 33.20474084 -47.31640625 24.40625 C-46.06876313 14.91800109 -41.59856695 7.68131112 -34.1875 1.6875 C-23.7756451 -5.54952793 -11.0490598 -6.46985762 0 0 Z " fill="#232021" transform="translate(279,512)"/>
</svg>
