<svg xmlns="http://www.w3.org/2000/svg" viewBox="0 0 24 24" fill="#ffffff">
  <path d="M11.1 1.6a1 1 0 0 1 1.8 0l.7 1.5a1 1 0 0 1-.9 1.4h-1.4a1 1 0 0 1-.9-1.4z"/>
  <g>
    <rect x="8.3" y="4.6" width="3.2" height="3.2" rx="0.7" transform="rotate(45 9.9 6.2)"/>
    <rect x="12.5" y="4.6" width="3.2" height="3.2" rx="0.7" transform="rotate(45 14.1 6.2)"/>
    <rect x="6.4" y="8.0" width="3.4" height="3.4" rx="0.7" transform="rotate(45 8.1 9.7)"/>
    <rect x="10.3" y="8.0" width="3.4" height="3.4" rx="0.7" transform="rotate(45 12 9.7)"/>
    <rect x="14.2" y="8.0" width="3.4" height="3.4" rx="0.7" transform="rotate(45 15.9 9.7)"/>
    <rect x="8.2" y="11.6" width="3.4" height="3.4" rx="0.7" transform="rotate(45 9.9 13.3)"/>
    <rect x="12.4" y="11.6" width="3.4" height="3.4" rx="0.7" transform="rotate(45 14.1 13.3)"/>
    <rect x="10.3" y="15.2" width="3.4" height="3.4" rx="0.7" transform="rotate(45 12 16.9)"/>
    <rect x="10.9" y="18.8" width="2.2" height="2.2" rx="0.5" transform="rotate(45 12 19.9)"/>
  </g>
</svg>
